<svg viewBox="730 -60 190 400" width="512" height="512" version="1.1" xmlns="http://www.w3.org/2000/svg">
<style>.vertex { font-family: Consolas } .edge { font-family: Consolas } .text { font-family: Consolas }</style>
    <path d="M 760 40L 890 190" fill="none" stroke="#000000" stroke-width="2"></path>
    <path d="M 760 140L 890 70" fill="none" stroke="#000000" stroke-width="2"></path>
    <path d="M 760 240L 890 190" fill="none" stroke="#000000" stroke-width="2"></path>
    <path d="M 760 140L 890 190" fill="none" stroke="#000000" stroke-width="2"></path>
    <path d="M 890 70L 760 240" fill="none" stroke="#000000" stroke-width="2"></path>
    <path d="M 890 70L 760 40" fill="none" stroke="#000000" stroke-width="2"></path>
    <path d="M 760 310L 890 190" fill="none" stroke="#000000" stroke-width="2"></path>
    <path d="M 760 -30L 890 70" fill="none" stroke="#000000" stroke-width="2"></path>
    <circle cx="760" cy="40" r="20" fill="#ffffff" stroke="#000000" stroke-width="1.5"/>
    <text class="vertex" x="760" y="40" dominant-baseline="middle" text-anchor="middle" fill="#000000" font-size="18px">1</text>
    <circle cx="760" cy="140" r="20" fill="#ffffff" stroke="#000000" stroke-width="1.5"/>
    <text class="vertex" x="760" y="140" dominant-baseline="middle" text-anchor="middle" fill="#000000" font-size="18px">2</text>
    <circle cx="760" cy="240" r="20" fill="#ffffff" stroke="#000000" stroke-width="1.5"/>
    <text class="vertex" x="760" y="240" dominant-baseline="middle" text-anchor="middle" fill="#000000" font-size="18px">3</text>
    <circle cx="890" cy="70" r="20" fill="hsl(0,100%,48%)" stroke="#000000" stroke-width="1.5"/>
    <text class="vertex" x="890" y="70" dominant-baseline="middle" text-anchor="middle" fill="hsl(0,0%,99%)" font-size="18px">4</text>
    <circle cx="890" cy="190" r="20" fill="hsl(0,100%,48%)" stroke="#000000" stroke-width="1.5"/>
    <text class="vertex" x="890" y="190" dominant-baseline="middle" text-anchor="middle" fill="hsl(0,0%,99%)" font-size="18px">5</text>
    <circle cx="760" cy="310" r="20" fill="#ffffff" stroke="#000000" stroke-width="1.5"/>
    <text class="vertex" x="760" y="310" dominant-baseline="middle" text-anchor="middle" fill="#000000" font-size="18px">6</text>
    <circle cx="760" cy="-30" r="20" fill="#ffffff" stroke="#000000" stroke-width="1.5"/>
    <text class="vertex" x="760" y="-30" dominant-baseline="middle" text-anchor="middle" fill="#000000" font-size="18px">7</text>
</svg>