<svg viewBox="640 -220 400 380" width="512" height="480" version="1.1" xmlns="http://www.w3.org/2000/svg">
<style>.vertex { font-family: Consolas } .edge { font-family: Consolas } .text { font-family: Consolas }</style>
    <path d="M 820 -190L 890 -110" fill="none" stroke="#000000" stroke-width="2"></path>
    <path d="M 890 -110L 950 -50" fill="none" stroke="hsl(0,100%,48%)" stroke-width="2"></path>
    <path d="M 950 -50L 1010 20" fill="none" stroke="hsl(0,100%,48%)" stroke-width="2"></path>
    <path d="M 740 -110L 820 -190" fill="none" stroke="hsl(0,100%,48%)" stroke-width="2"></path>
    <path d="M 670 -20L 740 -110" fill="none" stroke="#000000" stroke-width="2"></path>
    <path d="M 780 -20L 740 -110" fill="none" stroke="hsl(0,100%,48%)" stroke-width="2"></path>
    <path d="M 750 60L 780 -20" fill="none" stroke="#000000" stroke-width="2"></path>
    <path d="M 830 60L 780 -20" fill="none" stroke="hsl(0,100%,48%)" stroke-width="2"></path>
    <path d="M 830 60L 810 130" fill="none" stroke="hsl(0,100%,48%)" stroke-width="2"></path>
    <path d="M 910 20L 950 -50" fill="none" stroke="#000000" stroke-width="2"></path>
    <circle cx="820" cy="-190" r="20" fill="#ffffff" stroke="#000000" stroke-width="1.5"/>
    <text class="vertex" x="820" y="-190" dominant-baseline="middle" text-anchor="middle" fill="#000000" font-size="18px">1</text>
    <circle cx="740" cy="-110" r="20" fill="#ffffff" stroke="#000000" stroke-width="1.5"/>
    <text class="vertex" x="740" y="-110" dominant-baseline="middle" text-anchor="middle" fill="#000000" font-size="18px">2</text>
    <circle cx="890" cy="-110" r="20" fill="#ffffff" stroke="#000000" stroke-width="1.5"/>
    <text class="vertex" x="890" y="-110" dominant-baseline="middle" text-anchor="middle" fill="#000000" font-size="18px">3</text>
    <circle cx="670" cy="-20" r="20" fill="#ffffff" stroke="#000000" stroke-width="1.5"/>
    <text class="vertex" x="670" y="-20" dominant-baseline="middle" text-anchor="middle" fill="#000000" font-size="18px">4</text>
    <circle cx="780" cy="-20" r="20" fill="#ffffff" stroke="#000000" stroke-width="1.5"/>
    <text class="vertex" x="780" y="-20" dominant-baseline="middle" text-anchor="middle" fill="#000000" font-size="18px">5</text>
    <circle cx="950" cy="-50" r="20" fill="#ffffff" stroke="#000000" stroke-width="1.5"/>
    <text class="vertex" x="950" y="-50" dominant-baseline="middle" text-anchor="middle" fill="#000000" font-size="18px">6</text>
    <circle cx="1010" cy="20" r="20" fill="#ffffff" stroke="#000000" stroke-width="1.5"/>
    <text class="vertex" x="1010" y="20" dominant-baseline="middle" text-anchor="middle" fill="#000000" font-size="18px">7</text>
    <circle cx="750" cy="60" r="20" fill="#ffffff" stroke="#000000" stroke-width="1.5"/>
    <text class="vertex" x="750" y="60" dominant-baseline="middle" text-anchor="middle" fill="#000000" font-size="18px">8</text>
    <circle cx="830" cy="60" r="20" fill="#ffffff" stroke="#000000" stroke-width="1.5"/>
    <text class="vertex" x="830" y="60" dominant-baseline="middle" text-anchor="middle" fill="#000000" font-size="18px">9</text>
    <circle cx="810" cy="130" r="20" fill="#ffffff" stroke="#000000" stroke-width="1.5"/>
    <text class="vertex" x="810" y="130" dominant-baseline="middle" text-anchor="middle" fill="#000000" font-size="18px">10</text>
    <circle cx="910" cy="20" r="20" fill="#ffffff" stroke="#000000" stroke-width="1.5"/>
    <text class="vertex" x="910" y="20" dominant-baseline="middle" text-anchor="middle" fill="#000000" font-size="18px">11</text>
</svg>