<svg viewBox="495 -70 690 185" width="512" height="140" version="1.1" xmlns="http://www.w3.org/2000/svg">
<style>.vertex { font-family: Consolas } .edge { font-family: Consolas } .text { font-family: Consolas }</style>
    <path d="M 560 20L 520 90" fill="none" stroke="#000000" stroke-width="2"></path>
    <path d="M 560 20L 590 90" fill="none" stroke="#000000" stroke-width="2"></path>
    <path d="M 560 20L 600 -40" fill="none" stroke="#000000" stroke-width="2"></path>
    <path d="M 640 20L 600 -40" fill="none" stroke="#000000" stroke-width="2"></path>
    <path d="M 700 20L 740 -40" fill="none" stroke="#000000" stroke-width="2"></path>
    <path d="M 740 90L 770 20" fill="none" stroke="#000000" stroke-width="2"></path>
    <path d="M 740 -40L 770 20" fill="none" stroke="#000000" stroke-width="2"></path>
    <path d="M 800 90L 770 20" fill="none" stroke="#000000" stroke-width="2"></path>
    <path d="M 900 20L 940 -40" fill="none" stroke="#000000" stroke-width="2"></path>
    <path d="M 980 20L 940 -40" fill="none" stroke="#000000" stroke-width="2"></path>
    <path d="M 950 90L 980 20" fill="none" stroke="#000000" stroke-width="2"></path>
    <path d="M 980 20L 1010 90" fill="none" stroke="#000000" stroke-width="2"></path>
    <path d="M 1080 20L 1120 -40" fill="none" stroke="#000000" stroke-width="2"></path>
    <path d="M 1060 90L 1080 20" fill="none" stroke="#000000" stroke-width="2"></path>
    <path d="M 1080 20L 1110 90" fill="none" stroke="#000000" stroke-width="2"></path>
    <path d="M 1160 20L 1120 -40" fill="none" stroke="#000000" stroke-width="2"></path>
    <circle cx="600" cy="-40" r="20" fill="hsl(0,100%,48%)" stroke="#000000" stroke-width="1.5"/>
    <text class="vertex" x="600" y="-40" dominant-baseline="middle" text-anchor="middle" fill="hsl(0,0%,99%)" font-size="18px">p</text>
    <circle cx="560" cy="20" r="20" fill="#ffffff" stroke="#000000" stroke-width="1.5"/>
    <text class="vertex" x="560" y="20" dominant-baseline="middle" text-anchor="middle" fill="#000000" font-size="18px">x</text>
    <circle cx="640" cy="20" r="15" fill="#ffffff" stroke="#000000" stroke-width="1.5"/>
    <text class="vertex" x="640" y="20" dominant-baseline="middle" text-anchor="middle" fill="#000000" font-size="18px">a</text>
    <circle cx="520" cy="90" r="15" fill="#ffffff" stroke="#000000" stroke-width="1.5"/>
    <text class="vertex" x="520" y="90" dominant-baseline="middle" text-anchor="middle" fill="#000000" font-size="18px">b</text>
    <circle cx="590" cy="90" r="15" fill="#ffffff" stroke="#000000" stroke-width="1.5"/>
    <text class="vertex" x="590" y="90" dominant-baseline="middle" text-anchor="middle" fill="#000000" font-size="18px">c</text>
    <circle cx="740" cy="-40" r="20" fill="hsl(0,100%,48%)" stroke="#000000" stroke-width="1.5"/>
    <text class="vertex" x="740" y="-40" dominant-baseline="middle" text-anchor="middle" fill="hsl(0,0%,99%)" font-size="18px">x</text>
    <circle cx="700" cy="20" r="15" fill="#ffffff" stroke="#000000" stroke-width="1.5"/>
    <text class="vertex" x="700" y="20" dominant-baseline="middle" text-anchor="middle" fill="#000000" font-size="18px">b</text>
    <circle cx="770" cy="20" r="20" fill="#ffffff" stroke="#000000" stroke-width="1.5"/>
    <text class="vertex" x="770" y="20" dominant-baseline="middle" text-anchor="middle" fill="#000000" font-size="18px">p</text>
    <circle cx="740" cy="90" r="15" fill="#ffffff" stroke="#000000" stroke-width="1.5"/>
    <text class="vertex" x="740" y="90" dominant-baseline="middle" text-anchor="middle" fill="#000000" font-size="18px">c</text>
    <circle cx="800" cy="90" r="15" fill="#ffffff" stroke="#000000" stroke-width="1.5"/>
    <text class="vertex" x="800" y="90" dominant-baseline="middle" text-anchor="middle" fill="#000000" font-size="18px">a</text>
    <circle cx="940" cy="-40" r="20" fill="hsl(0,100%,48%)" stroke="#000000" stroke-width="1.5"/>
    <text class="vertex" x="940" y="-40" dominant-baseline="middle" text-anchor="middle" fill="hsl(0,0%,99%)" font-size="18px">p</text>
    <circle cx="900" cy="20" r="15" fill="#ffffff" stroke="#000000" stroke-width="1.5"/>
    <text class="vertex" x="900" y="20" dominant-baseline="middle" text-anchor="middle" fill="#000000" font-size="18px">a</text>
    <circle cx="950" cy="90" r="15" fill="#ffffff" stroke="#000000" stroke-width="1.5"/>
    <text class="vertex" x="950" y="90" dominant-baseline="middle" text-anchor="middle" fill="#000000" font-size="18px">b</text>
    <circle cx="1010" cy="90" r="15" fill="#ffffff" stroke="#000000" stroke-width="1.5"/>
    <text class="vertex" x="1010" y="90" dominant-baseline="middle" text-anchor="middle" fill="#000000" font-size="18px">c</text>
    <circle cx="1120" cy="-40" r="20" fill="hsl(0,100%,48%)" stroke="#000000" stroke-width="1.5"/>
    <text class="vertex" x="1120" y="-40" dominant-baseline="middle" text-anchor="middle" fill="hsl(0,0%,99%)" font-size="18px">x</text>
    <circle cx="1110" cy="90" r="15" fill="#ffffff" stroke="#000000" stroke-width="1.5"/>
    <text class="vertex" x="1110" y="90" dominant-baseline="middle" text-anchor="middle" fill="#000000" font-size="18px">b</text>
    <circle cx="1080" cy="20" r="20" fill="#ffffff" stroke="#000000" stroke-width="1.5"/>
    <text class="vertex" x="1080" y="20" dominant-baseline="middle" text-anchor="middle" fill="#000000" font-size="18px">p</text>
    <circle cx="1160" cy="20" r="15" fill="#ffffff" stroke="#000000" stroke-width="1.5"/>
    <text class="vertex" x="1160" y="20" dominant-baseline="middle" text-anchor="middle" fill="#000000" font-size="18px">c</text>
    <circle cx="1060" cy="90" r="15" fill="#ffffff" stroke="#000000" stroke-width="1.5"/>
    <text class="vertex" x="1060" y="90" dominant-baseline="middle" text-anchor="middle" fill="#000000" font-size="18px">a</text>
    <circle cx="980" cy="20" r="20" fill="#ffffff" stroke="#000000" stroke-width="1.5"/>
    <text class="vertex" x="980" y="20" dominant-baseline="middle" text-anchor="middle" fill="#000000" font-size="18px">x</text>
</svg>